<mxfile host="app.diagrams.net" agent="Mozilla/5.0 (Windows NT 10.0; Win64; x64) AppleWebKit/537.36 (KHTML, like Gecko) Chrome/131.0.0.0 Safari/537.36" version="24.8.6">
  <diagram name="Page-1" id="efa7a0a1-bf9b-a30e-e6df-94a7791c09e9">
    <mxGraphModel dx="1050" dy="565" grid="1" gridSize="10" guides="1" tooltips="1" connect="1" arrows="1" fold="1" page="1" pageScale="1" pageWidth="826" pageHeight="1169" background="none" math="0" shadow="0">
      <root>
        <mxCell id="0" />
        <mxCell id="1" parent="0" />
        <mxCell id="QBkO0qqE8h2YHJh4M1da-120" style="edgeStyle=orthogonalEdgeStyle;rounded=0;orthogonalLoop=1;jettySize=auto;html=1;exitX=0;exitY=0.5;exitDx=0;exitDy=0;entryX=0.5;entryY=0;entryDx=0;entryDy=0;endArrow=ERzeroToMany;endFill=0;strokeColor=default;startArrow=ERone;startFill=0;" edge="1" parent="1" source="QBkO0qqE8h2YHJh4M1da-114" target="QBkO0qqE8h2YHJh4M1da-116">
          <mxGeometry relative="1" as="geometry" />
        </mxCell>
        <mxCell id="QBkO0qqE8h2YHJh4M1da-121" style="edgeStyle=orthogonalEdgeStyle;rounded=0;orthogonalLoop=1;jettySize=auto;html=1;exitX=1;exitY=0.5;exitDx=0;exitDy=0;entryX=0.5;entryY=0;entryDx=0;entryDy=0;endArrow=ERzeroToMany;endFill=0;startArrow=ERone;startFill=0;" edge="1" parent="1" source="QBkO0qqE8h2YHJh4M1da-114" target="QBkO0qqE8h2YHJh4M1da-117">
          <mxGeometry relative="1" as="geometry" />
        </mxCell>
        <mxCell id="QBkO0qqE8h2YHJh4M1da-114" value="Domains" style="rounded=0;whiteSpace=wrap;html=1;" vertex="1" parent="1">
          <mxGeometry x="200" y="70" width="120" height="60" as="geometry" />
        </mxCell>
        <mxCell id="QBkO0qqE8h2YHJh4M1da-124" style="edgeStyle=orthogonalEdgeStyle;rounded=0;orthogonalLoop=1;jettySize=auto;html=1;exitX=0.5;exitY=1;exitDx=0;exitDy=0;entryX=0.5;entryY=0;entryDx=0;entryDy=0;endArrow=ERzeroToMany;endFill=0;startArrow=ERzeroToOne;startFill=0;" edge="1" parent="1" source="QBkO0qqE8h2YHJh4M1da-115" target="QBkO0qqE8h2YHJh4M1da-119">
          <mxGeometry relative="1" as="geometry" />
        </mxCell>
        <mxCell id="QBkO0qqE8h2YHJh4M1da-115" value="Departments" style="whiteSpace=wrap;html=1;" vertex="1" parent="1">
          <mxGeometry x="600" y="70" width="120" height="60" as="geometry" />
        </mxCell>
        <mxCell id="QBkO0qqE8h2YHJh4M1da-116" value="User Mailboxes" style="whiteSpace=wrap;html=1;" vertex="1" parent="1">
          <mxGeometry x="80" y="210" width="120" height="60" as="geometry" />
        </mxCell>
        <mxCell id="QBkO0qqE8h2YHJh4M1da-122" style="edgeStyle=orthogonalEdgeStyle;rounded=0;orthogonalLoop=1;jettySize=auto;html=1;exitX=0.5;exitY=1;exitDx=0;exitDy=0;entryX=0;entryY=0.5;entryDx=0;entryDy=0;endArrow=ERzeroToMany;endFill=0;startArrow=ERone;startFill=0;" edge="1" parent="1" source="QBkO0qqE8h2YHJh4M1da-117" target="QBkO0qqE8h2YHJh4M1da-118">
          <mxGeometry relative="1" as="geometry" />
        </mxCell>
        <mxCell id="QBkO0qqE8h2YHJh4M1da-125" style="edgeStyle=orthogonalEdgeStyle;rounded=0;orthogonalLoop=1;jettySize=auto;html=1;exitX=1;exitY=0.5;exitDx=0;exitDy=0;entryX=0;entryY=0.5;entryDx=0;entryDy=0;endArrow=ERzeroToOne;endFill=0;startArrow=ERzeroToMany;startFill=0;" edge="1" parent="1" source="QBkO0qqE8h2YHJh4M1da-117" target="QBkO0qqE8h2YHJh4M1da-115">
          <mxGeometry relative="1" as="geometry" />
        </mxCell>
        <mxCell id="QBkO0qqE8h2YHJh4M1da-117" value="Group Mailboxes" style="rounded=0;whiteSpace=wrap;html=1;" vertex="1" parent="1">
          <mxGeometry x="320" y="210" width="120" height="60" as="geometry" />
        </mxCell>
        <mxCell id="QBkO0qqE8h2YHJh4M1da-118" value="Group Access" style="whiteSpace=wrap;html=1;" vertex="1" parent="1">
          <mxGeometry x="353" y="400" width="120" height="60" as="geometry" />
        </mxCell>
        <mxCell id="QBkO0qqE8h2YHJh4M1da-123" style="edgeStyle=orthogonalEdgeStyle;rounded=0;orthogonalLoop=1;jettySize=auto;html=1;exitX=0.5;exitY=1;exitDx=0;exitDy=0;entryX=1;entryY=0.5;entryDx=0;entryDy=0;endArrow=ERzeroToMany;endFill=0;startArrow=ERzeroToOne;startFill=0;" edge="1" parent="1" source="QBkO0qqE8h2YHJh4M1da-119" target="QBkO0qqE8h2YHJh4M1da-118">
          <mxGeometry relative="1" as="geometry" />
        </mxCell>
        <mxCell id="QBkO0qqE8h2YHJh4M1da-119" value="Users" style="rounded=0;whiteSpace=wrap;html=1;" vertex="1" parent="1">
          <mxGeometry x="600" y="210" width="120" height="60" as="geometry" />
        </mxCell>
      </root>
    </mxGraphModel>
  </diagram>
</mxfile>
